<svg width="175" height="34" viewBox="0 0 175 34" fill="none" xmlns="http://www.w3.org/2000/svg">
    <path d="M51.17 23.12h-2.274v-8.149l-3.317 6.065h-1.326L40.84 14.97v8.15h-2.274V10.706h2.274l4.075 7.202 3.98-7.202h2.274V23.12zM64.817 22.835c-1.422.379-2.749.568-4.075.568-2.085 0-3.79-.663-5.117-1.895-1.232-1.232-1.895-2.748-1.895-4.548 0-1.896.663-3.412 1.99-4.644 1.326-1.232 2.937-1.8 5.022-1.8 1.232 0 2.369.095 3.506.379l-.284 1.99c-1.232-.19-2.18-.284-2.938-.284-1.516 0-2.748.379-3.6 1.137-.854.758-1.233 1.8-1.233 3.222 0 1.232.38 2.274 1.232 3.127.758.758 1.895 1.232 3.222 1.232.663 0 1.327-.095 1.99-.19v-4.17h2.18v5.876zM80.451 23.12h-2.274v-8.149l-3.411 6.065h-1.327l-3.317-6.065v8.15h-2.274V10.706h2.274l4.075 7.202 3.98-7.202h2.274V23.12z" fill="#927239"/>
    <path fill-rule="evenodd" clip-rule="evenodd" d="M97.224 23.12h2.937l-3.695-5.022c.758-.284 1.326-.758 1.8-1.421.474-.569.663-1.327.663-2.085 0-1.137-.379-1.99-1.137-2.748-.758-.758-1.8-1.137-2.937-1.137H88.41V23.12h2.37v-4.738h3.031l3.412 4.738zm-1.327-9.948c.379.38.568.853.568 1.422 0 .568-.19 1.042-.568 1.326-.38.38-.853.569-1.422.569H90.78v-3.885h3.695c.569 0 1.043.19 1.422.568z" fill="#927239"/>
    <path d="M111.059 23.12h-8.908V10.707h8.908v2.084h-6.539v2.938h6.16v2.085h-6.16v3.316h6.539v1.99zM123.377 19.802c0 1.137-.474 1.99-1.422 2.654-.947.663-2.179.947-3.695.947-1.896 0-3.601-.379-5.117-1.042l.568-1.895c1.611.568 3.222.852 4.549.852 1.895 0 2.748-.473 2.748-1.516 0-.379-.19-.758-.664-1.042-.379-.19-1.137-.569-2.558-1.042-1.611-.569-2.653-1.137-3.222-1.611-.663-.569-.948-1.327-.948-2.37 0-2.179 1.611-3.221 4.928-3.221 1.611 0 3.127.19 4.454.568l-.379 1.896c-1.422-.285-2.748-.474-4.075-.474-.948 0-1.611.095-2.085.284-.379.19-.568.474-.568.948 0 .473.284.758.758 1.137.379.19 1.232.568 2.748 1.137 1.611.569 2.558 1.137 3.032 1.516.663.474.948 1.232.948 2.274z" fill="#927239"/>
    <path fill-rule="evenodd" clip-rule="evenodd" d="M135.601 21.508c1.232-1.232 1.8-2.748 1.8-4.548 0-1.8-.568-3.317-1.8-4.549-1.232-1.232-2.653-1.895-4.454-1.895-1.8 0-3.222.663-4.453 1.895-1.232 1.232-1.801 2.748-1.801 4.549 0 1.8.569 3.316 1.801 4.548 1.231 1.232 2.653 1.895 4.453 1.895 1.801 0 3.222-.663 4.454-1.895zm-1.611-7.675c.663.852 1.042 1.895 1.042 3.127 0 1.232-.284 2.274-.947 3.032-.758.853-1.706 1.232-2.843 1.232-1.232 0-2.179-.38-2.843-1.232-.663-.758-1.042-1.8-1.042-3.032 0-1.327.379-2.275 1.042-3.128.664-.852 1.611-1.231 2.748-1.231 1.232 0 2.18.379 2.843 1.231zM148.773 23.12h2.938l-3.696-5.022c.758-.284 1.327-.758 1.801-1.422.473-.568.663-1.326.663-2.084 0-1.137-.379-1.99-1.137-2.748-.758-.758-1.801-1.137-2.938-1.137h-6.444V23.12h2.369v-4.738h3.033l3.411 4.738zm-1.327-9.948c.379.379.569.853.569 1.421 0 .569-.19 1.043-.569 1.327-.379.379-.853.568-1.421.568h-3.696v-3.885h3.696c.568 0 1.042.19 1.421.569z" fill="#927239"/>
    <path d="M162.798 12.791h-4.075v10.33h-2.369V12.79h-4.169v-2.084h10.613v2.084zM174.358 19.802c0 1.137-.474 1.99-1.421 2.654-.948.663-2.18.947-3.696.947-1.895 0-3.601-.379-5.117-1.042l.569-1.895c1.611.568 3.221.852 4.548.852 1.895 0 2.748-.473 2.748-1.516 0-.379-.189-.758-.663-1.042-.379-.19-1.137-.569-2.559-1.042-1.611-.569-2.653-1.137-3.222-1.611-.663-.569-.947-1.327-.947-2.37 0-2.179 1.611-3.221 4.927-3.221 1.611 0 3.127.19 4.454.568l-.379 1.896c-1.421-.285-2.748-.474-4.075-.474-.947 0-1.611.095-2.084.284-.379.19-.569.474-.569.948 0 .473.284.758.758 1.137.379.19 1.232.568 2.748 1.137 1.611.569 2.559 1.137 3.033 1.516.663.474.947 1.232.947 2.274zM2.179 14.118c0 2.938.474 5.686 1.99 7.96v-1.99c0-2.464 1.99-4.17 3.98-5.307-2.085.759-4.36.285-5.97-.663z" fill="#927239"/>
    <path fill-rule="evenodd" clip-rule="evenodd" d="M3.98 12.223c-.853.095-1.611-.095-2.18-.474.83.218 1.498-.308 2.182-.846.8-.63 1.622-1.276 2.746-.765 1.042.569 2.18 1.043 3.506 1.137l.473.948c-.947-1.232-2.748-1.042-4.169-.853-.426 0-.853.269-1.253.521-.49.309-.94.592-1.305.332zm-.759-.19h.664l.568-.568c-.284-.474-1.326.19-1.232.568z" fill="#927239"/>
    <path d="M.568 6.916c.663.19 1.327.38 1.99.38 1.421-.57 1.8-1.706 1.232-3.222C2.937 2.842 1.8 2.178.568 1.894v5.022zM10.044 33.828c.19-.19.474-.474.664-.758 3.79-4.927-3.601-7.77-3.412-12.508.19-1.895 1.232-3.317 2.464-4.833l-.095-.095c-1.137 1.137-1.61 1.895-2.369 3.033-2.274 4.643.948 11.087-2.369 15.066l5.117.095zM25.395 17.15c0 6.823-3.222 12.793-8.244 16.678H33.83V.473H17.15c5.022 3.79 8.244 9.855 8.244 16.678z" fill="#927239"/>
    <path d="M.568 33.828h2.843l.663-.663c3.885-5.306-.758-9.002-3.6-13.172l.094 13.835zM8.433.473H.568v.568c.758.095 1.611.38 2.274.664 1.611.947 2.843 2.463 2.654 4.359l3.506-.38c.474-1.137.663-2.937.19-3.885-.19-.568-.475-1.042-.759-1.326zM10.044.473c.758 1.042.758 2.369.853 3.411 1.421-1.042 3.127-1.706 4.928-1.232C14.593 1.705 13.74.946 12.224.378l-2.18.095z" fill="#927239"/>
    <path fill-rule="evenodd" clip-rule="evenodd" d="M17.91 15.919c2.274 2.179 2.558 5.496 2.179 8.623-.284 4.927-3.79 7.58-7.581 9.286h-1.232c1.327-2.085 2.18-4.833.948-7.202 2.084.19 3.885-.568 5.117-2.274.15-.3-.058-.482-.292-.687a3.638 3.638 0 0 1-.182-.166c-.183.069-.367.14-.552.212-1.355.524-2.792 1.08-4.376.83-.314-.262-.68-.502-1.052-.747-.973-.64-1.99-1.31-2.264-2.474.077-.386.105-.807.134-1.235.077-1.146.157-2.34 1.192-3.03v.38c.348.063.695.179 1.043.295.695.231 1.39.463 2.084.273.518-.57 1.15-.94 1.785-1.315.528-.311 1.06-.624 1.532-1.054.253.317.634.295 1 .274a2.1 2.1 0 0 1 .516.01zm-.854 1.516-.284.758-.379-.948c-.853.19-1.706.474-2.18 1.422-.035.106-.03.24-.026.374.007.225.015.455-.163.573-.43-.072-.372-.633-.318-1.148.017-.165.034-.325.034-.463.663-.663 2.464-2.084 3.127-1.516.19.095.284.569.19.948zm-3.79 6.821c-.372-.298-.335-.771-.302-1.19.01-.114.018-.224.018-.326l.284-.284c.29.929.865.613 1.485.272.392-.215.801-.44 1.168-.367.223-.089.299-.282.366-.452.076-.193.14-.356.392-.306.53 1.656-.7 1.923-1.94 2.192-.535.116-1.072.233-1.471.461z" fill="#927239"/>
    <path d="M22.837 11.75c-1.043-3.6-4.265-8.433-8.529-8.149-1.61.095-3.222 1.327-3.79 2.275 1.137.663 2.369 1.61 3.411 2.558-.095.38.19.853-.284 1.042-.569-.473-1.043-1.61-1.8-1.231.568 1.231 2.084 1.326 3.221 1.61.474.474.285 1.232 1.232.853.474.095.664.664.758 1.043-.758 1.421-2.843.474-3.98.758.948.379 1.99.474 2.843 1.042.853.569 1.137-.758 1.516-1.232 1.517.38.664 1.99 1.327 2.843 3.222 3.317 2.558 9.192.948 12.982 4.453-3.885 4.074-12.792 3.127-16.393z" fill="#927239"/>
</svg>
