<svg width="43" height="22" viewBox="0 0 43 22" fill="none" xmlns="http://www.w3.org/2000/svg">
    <path d="m3.547 21.163-1.43-1.995H.966v1.995H-.267v-5.559h2.975c1.044 0 1.8.81 1.8 1.786 0 .693-.377 1.302-1.01 1.595l1.578 2.178h-1.53zm-1.085-4.55H.966v1.578h1.496c.427 0 .78-.333.78-.801 0-.467-.353-.776-.78-.776zM5.981 21.163v-5.56h4.02v1.077H7.214v1.078h2.63v1.076h-2.63v1.252h2.787v1.077H5.98zM16.134 21.163h-.979l-1.118-3.472-1.11 3.472h-.977l-1.332-5.56h1.216l.748 3.248 1.036-3.247h.847l1.036 3.247.748-3.247h1.216l-1.331 5.559zM21.462 21.163l-.42-1.144H19.02l-.427 1.144h-1.209l2.08-5.56H20.6l2.071 5.56h-1.208zm-1.43-4.307-.716 2.22h1.422l-.707-2.22zM27.307 21.163l-1.43-1.995h-1.151v1.995h-1.233v-5.559h2.975c1.044 0 1.8.81 1.8 1.786 0 .693-.377 1.302-1.01 1.595l1.578 2.178h-1.53zm-1.085-4.55h-1.496v1.578h1.496c.427 0 .78-.333.78-.801 0-.467-.352-.776-.78-.776zM31.023 21.163h-1.282v-5.559h1.282c2.121 0 3.51 1.152 3.51 2.78 0 1.627-1.389 2.779-3.51 2.779zm.23-4.449h-.28v3.339h.28c1.078 0 1.998-.484 1.998-1.67 0-1.185-.92-1.669-1.997-1.669zM37.526 21.255c-.723 0-1.52-.159-2.293-.468l.255-.96c.69.226 1.39.368 2.022.368.699 0 1.11-.159 1.11-.576 0-.343-.313-.41-1.316-.793-1.233-.468-1.85-.785-1.85-1.762 0-1.027.708-1.544 2.261-1.544.617 0 1.43.117 1.99.284l-.19 1.018c-.493-.142-1.216-.226-1.783-.226-.773 0-1.044.11-1.044.435 0 .35.345.45 1.447.884 1.159.46 1.718.643 1.718 1.67 0 1.044-.978 1.67-2.327 1.67zM9.406 12.568v-7.11l-2.88 4.929H5.11L2.247 5.44v7.128H-.267V.758h2.514l3.58 6.171 3.58-6.17h2.514v11.809H9.406zM20.775 12.763c-4.103 0-6.583-2.713-6.583-6.082 0-3.618 2.812-6.1 6.548-6.1 1.17 0 2.358.124 3.37.373l-.349 2.234a13.813 13.813 0 0 0-2.69-.248c-2.863 0-4.26 1.347-4.26 3.741 0 2.146 1.345 3.724 3.737 3.724.611 0 1.205-.036 1.711-.125V6.486h2.445v5.727c-.89.284-2.829.55-3.929.55zM36.998 12.568v-7.11l-2.881 4.929h-1.414L29.839 5.44v7.128h-2.515V.758h2.515l3.58 6.171 3.579-6.17h2.515v11.809h-2.515zM40.85 20.616v.639h-.177v-.64h-.259v-.157h.692v.158h-.255zm1.069.639v-.48l-.194.333h-.095l-.2-.333v.48h-.167v-.797h.163l.25.427.248-.427h.162v.797h-.167z" fill="#010101"/>
</svg>
